<svg width="320" viewBox="0 0 470 470" role="img" xmlns="http://www.w3.org/2000/svg">
<title>emulo mascot</title>
<desc>A friendly flat robot with double-stroke eyes, with a faded copy of itself behind it.</desc>
<ellipse cx="306" cy="392" rx="150" ry="20" fill="#0f766e" opacity="0.14"/>
<g opacity="0.28" transform="translate(30,-22)">
<rect x="224" y="96" width="212" height="210" rx="52" fill="#14b8a6"/>
<rect x="306" y="60" width="10" height="40" rx="5" fill="#14b8a6"/>
<circle cx="311" cy="52" r="15" fill="#14b8a6"/>
</g>
<line x1="281" y1="92" x2="275" y2="58" stroke="#17303a" stroke-width="7" stroke-linecap="round"/>
<circle cx="273" cy="49" r="16" fill="#ff8a5c" stroke="#17303a" stroke-width="6"/>
<rect x="198" y="200" width="26" height="70" rx="13" fill="#0f9488" stroke="#17303a" stroke-width="6"/>
<rect x="428" y="200" width="26" height="70" rx="13" fill="#0f9488" stroke="#17303a" stroke-width="6"/>
<rect x="216" y="96" width="220" height="216" rx="54" fill="#14b8a6" stroke="#17303a" stroke-width="7"/>
<rect x="248" y="132" width="156" height="132" rx="28" fill="#f6f4ec" stroke="#17303a" stroke-width="6"/>
<g fill="#17303a">
<g transform="rotate(14 296 178)">
<rect x="282" y="158" width="11" height="40" rx="5.5"/>
<rect x="299" y="158" width="11" height="40" rx="5.5"/>
</g>
<g transform="rotate(14 360 178)">
<rect x="346" y="158" width="11" height="40" rx="5.5"/>
<rect x="363" y="158" width="11" height="40" rx="5.5"/>
</g>
</g>
<circle cx="282" cy="228" r="12" fill="#ff8a5c" opacity="0.55"/>
<circle cx="370" cy="228" r="12" fill="#ff8a5c" opacity="0.55"/>
<path d="M298 224 Q326 250 354 224" fill="none" stroke="#17303a" stroke-width="6" stroke-linecap="round"/>
<rect x="262" y="312" width="46" height="24" rx="12" fill="#0f9488" stroke="#17303a" stroke-width="6"/>
<rect x="344" y="312" width="46" height="24" rx="12" fill="#0f9488" stroke="#17303a" stroke-width="6"/>
</svg>
